# xmcd
# 
# Track frame offsets:
#     150
#     20463
#     55960
#     83518
#     114983
#     169915
#     223103
# 
# Disc length: 4059
# 
# Revision: 0
# Processed by: cddbd v1.5.2PL0 Copyright (c) Steve Scherf et al.
# Submitted via: fre:ac v1.0.17
# 
DISCID=550fd907
DTITLE=The Durgas - Live in Hawaii
DYEAR=0
DGENRE=
TTITLE0=Fed Up
TTITLE1=New York Limousine
TTITLE2=C'est Pas Comme Ca
TTITLE3=Phone Tag
TTITLE4=Something Normal
TTITLE5=Whiskey Tree
TTITLE6=Getting Gone
EXTD=
EXTT0=
EXTT1=
EXTT2=
EXTT3=
EXTT4=
EXTT5=
EXTT6=
PLAYORDER=
